<svg width="300" height="21" viewBox="0 0 300 21" fill="none" xmlns="http://www.w3.org/2000/svg">
<path fill-rule="evenodd" clip-rule="evenodd" d="M53.9061 0V20.316H64.7935V18.151H56.0711V11.2402H64.1305V9.07585H56.0711V2.16433H64.7935V0H53.9061Z" fill="black"/>
<path fill-rule="evenodd" clip-rule="evenodd" d="M0 0V2.16433H5.54086V20.316H7.70587V2.16433H13.2467V0H0Z" fill="black"/>
<path fill-rule="evenodd" clip-rule="evenodd" d="M38.1974 0V9.07585H27.7752V0H25.6109V20.316H27.7752V11.2402H38.1974V20.316H40.3617V0H38.1974Z" fill="black"/>
<path fill-rule="evenodd" clip-rule="evenodd" d="M108.339 0V7.62731H97.9167V0H95.7523V20.316H97.9167V13.9151H108.339V20.316H110.504V0H108.339ZM97.9166 11.2402V9.79233H108.339V11.2402V11.7508H97.9166V11.2402Z" fill="black"/>
<path fill-rule="evenodd" clip-rule="evenodd" d="M124.048 0V20.316H134.935V18.151H126.213V11.2402H134.272V9.07585H126.213V2.16433H134.935V0H124.048Z" fill="black"/>
<path fill-rule="evenodd" clip-rule="evenodd" d="M161.886 0L155.855 8.31467L149.823 0H147.149L154.517 10.158L147.149 20.316H149.823L155.855 12.0014L161.886 20.316H164.56L157.191 10.158L164.56 0H161.886Z" fill="black"/>
<path fill-rule="evenodd" clip-rule="evenodd" d="M181.594 0L173.079 20.316H175.426L178.054 14.0465H186.452L189.016 20.316H191.355L183.041 0H181.594ZM182.303 3.90948L185.566 11.8822H178.962L182.303 3.90948Z" fill="black"/>
<path fill-rule="evenodd" clip-rule="evenodd" d="M275.19 0V15.8675L263.811 0H261.969V20.316H264.134V4.16208L275.715 20.316H277.355V0H275.19Z" fill="black"/>
<path fill-rule="evenodd" clip-rule="evenodd" d="M234.963 0.20459L229.217 10.1581L234.963 20.1102H246.456L252.203 10.1581L246.456 0.20459H234.963ZM231.716 10.1581L236.213 2.36893H245.207L249.704 10.1581L245.207 17.9459H236.213L231.716 10.1581Z" fill="black"/>
<path fill-rule="evenodd" clip-rule="evenodd" d="M204.646 0.20459L198.9 10.1581L204.646 20.1102H216.139L220.425 11.1461L220.396 9.07592H209.504V11.2396H217.872L214.89 17.9459H205.895L201.399 10.1581L205.895 2.36892H215.515V0.20459H204.646Z" fill="black"/>
<path fill-rule="evenodd" clip-rule="evenodd" d="M291.176 0.0336914L287.411 3.79961V9.19419L297.755 11.9721V15.6208L295.258 18.1177H291.858L289.739 15.929L286.774 15.9797L290.941 20.282H296.155L299.919 16.5168V10.3129L289.576 7.53505V4.69554L292.072 2.1987H295.469L296.752 3.53753L299.763 3.55107L296.392 0.0336914H291.176Z" fill="black"/>
</svg>
